# xmcd CD database file
#
# Track frame offsets:
#	150
#	13585
#	29515
#	46460
#	66980
#	84347
#	107420
#	125335
#	142655
#	159087
#	177602
#
# Disc length: 2984 seconds
#
# Revision: 4
# Processed by: cddbd v1.5.2PL0 Copyright (c) Steve Scherf et al.
# Submitted via: CDex 1.79
#
DISCID=850ba60b
DTITLE=Jon Randall - Willin'
DYEAR=1999
DGENRE=Country
TTITLE0=Baby Make The Sun Go Down
TTITLE1=Can`t Find The Words
TTITLE2=Willin'
TTITLE3=Can't Hurt Anymore
TTITLE4=Mountain Of Regret
TTITLE5=Afraid Of The Dark
TTITLE6=Sweet Lorretta
TTITLE7=Blew Me Away
TTITLE8=Walk The Line
TTITLE9=Breakin' The Rules
TTITLE10=Lonely Street
EXTD=YEAR: 1999
EXTT0=
EXTT1=
EXTT2=
EXTT3=
EXTT4=
EXTT5=
EXTT6=
EXTT7=
EXTT8=
EXTT9=
EXTT10=
PLAYORDER=
